<?xml version="1.0" encoding="UTF-8"?>
<svg xmlns="http://www.w3.org/2000/svg" xmlns:xlink="http://www.w3.org/1999/xlink" width="375pt" height="374.999991pt" viewBox="0 0 375 374.999991" version="1.2">
<g id="surface1">
<path style=" stroke:none;fill-rule:nonzero;fill:rgb(100%,53.329468%,10.5896%);fill-opacity:1;" d="M 187.5 46.875 C 190.566406 46.875 193.628906 46.976562 196.6875 47.175781 C 199.746094 47.375 202.792969 47.675781 205.832031 48.074219 C 208.871094 48.476562 211.894531 48.972656 214.902344 49.570312 C 217.90625 50.167969 220.890625 50.863281 223.851562 51.65625 C 226.8125 52.449219 229.746094 53.335938 232.648438 54.320312 C 235.550781 55.304688 238.421875 56.382812 241.253906 57.554688 C 244.085938 58.726562 246.875 59.988281 249.625 61.34375 C 252.375 62.695312 255.078125 64.140625 257.734375 65.671875 C 260.390625 67.203125 262.992188 68.816406 265.542969 70.519531 C 268.09375 72.21875 270.585938 74.003906 273.019531 75.867188 C 275.453125 77.730469 277.820312 79.671875 280.128906 81.691406 C 282.433594 83.710938 284.671875 85.800781 286.839844 87.96875 C 289.011719 90.132812 291.109375 92.367188 293.132812 94.667969 C 295.15625 96.972656 297.101562 99.339844 298.96875 101.769531 C 300.839844 104.199219 302.625 106.6875 304.332031 109.234375 C 306.039062 111.78125 307.660156 114.378906 309.195312 117.03125 C 310.730469 119.683594 312.179688 122.382812 313.539062 125.132812 C 314.898438 127.878906 316.164062 130.667969 317.34375 133.5 C 318.519531 136.328125 319.605469 139.195312 320.59375 142.09375 C 321.582031 144.996094 322.476562 147.925781 323.273438 150.886719 C 324.074219 153.847656 324.773438 156.828125 325.375 159.832031 C 325.980469 162.839844 326.484375 165.859375 326.890625 168.898438 C 327.292969 171.9375 327.601562 174.988281 327.808594 178.042969 C 328.011719 181.101562 328.117188 184.164062 328.125 187.230469 C 328.128906 190.296875 328.035156 193.359375 327.84375 196.417969 C 327.648438 199.476562 327.355469 202.527344 326.960938 205.566406 C 326.566406 208.605469 326.074219 211.628906 325.480469 214.636719 C 324.890625 217.644531 324.199219 220.628906 323.414062 223.59375 C 322.628906 226.554688 321.746094 229.488281 320.765625 232.394531 C 319.789062 235.296875 318.714844 238.167969 317.550781 241.003906 C 316.382812 243.839844 315.125 246.632812 313.777344 249.382812 C 312.425781 252.136719 310.988281 254.84375 309.464844 257.5 C 307.9375 260.160156 306.328125 262.765625 304.632812 265.320312 C 302.933594 267.871094 301.15625 270.367188 299.296875 272.804688 C 297.4375 275.242188 295.5 277.613281 293.488281 279.925781 C 291.472656 282.234375 289.382812 284.476562 287.222656 286.648438 C 285.0625 288.824219 282.832031 290.925781 280.53125 292.953125 C 278.234375 294.980469 275.871094 296.929688 273.445312 298.804688 C 271.019531 300.679688 268.535156 302.46875 265.992188 304.179688 C 263.449219 305.890625 260.851562 307.519531 258.203125 309.058594 C 255.550781 310.601562 252.855469 312.054688 250.109375 313.417969 C 247.363281 314.78125 244.578125 316.054688 241.75 317.238281 C 238.921875 318.421875 236.058594 319.511719 233.160156 320.507812 C 230.261719 321.5 227.332031 322.402344 224.375 323.203125 C 221.414062 324.007812 218.433594 324.714844 215.429688 325.324219 C 212.425781 325.933594 209.40625 326.441406 206.367188 326.851562 C 203.332031 327.265625 200.28125 327.578125 197.222656 327.789062 C 194.167969 328 191.105469 328.113281 188.039062 328.125 C 184.972656 328.136719 181.910156 328.046875 178.851562 327.859375 C 175.792969 327.671875 172.742188 327.382812 169.703125 326.996094 C 166.660156 326.605469 163.636719 326.121094 160.628906 325.535156 C 157.617188 324.949219 154.632812 324.265625 151.667969 323.484375 C 148.703125 322.703125 145.769531 321.824219 142.863281 320.851562 C 139.957031 319.878906 137.082031 318.8125 134.246094 317.652344 C 131.410156 316.492188 128.613281 315.238281 125.859375 313.894531 C 123.101562 312.550781 120.394531 311.117188 117.734375 309.597656 C 115.070312 308.078125 112.464844 306.472656 109.90625 304.78125 C 107.351562 303.089844 104.851562 301.316406 102.410156 299.460938 C 99.96875 297.605469 97.59375 295.671875 95.277344 293.664062 C 92.964844 291.652344 90.71875 289.570312 88.542969 287.414062 C 86.363281 285.253906 84.257812 283.03125 82.226562 280.734375 C 80.195312 278.441406 78.238281 276.082031 76.359375 273.660156 C 74.480469 271.234375 72.683594 268.753906 70.96875 266.214844 C 69.253906 263.675781 67.621094 261.082031 66.078125 258.433594 L 126.789062 222.96875 C 127.5625 224.289062 128.375 225.585938 129.234375 226.859375 C 130.09375 228.128906 130.992188 229.367188 131.929688 230.578125 C 132.871094 231.789062 133.847656 232.96875 134.863281 234.117188 C 135.878906 235.265625 136.929688 236.378906 138.019531 237.457031 C 139.109375 238.535156 140.234375 239.578125 141.390625 240.582031 C 142.546875 241.585938 143.734375 242.554688 144.957031 243.480469 C 146.175781 244.40625 147.425781 245.292969 148.703125 246.140625 C 149.980469 246.984375 151.285156 247.789062 152.617188 248.550781 C 153.949219 249.308594 155.300781 250.027344 156.679688 250.699219 C 158.058594 251.371094 159.453125 251.996094 160.875 252.574219 C 162.292969 253.15625 163.726562 253.691406 165.179688 254.175781 C 166.632812 254.664062 168.101562 255.101562 169.585938 255.492188 C 171.066406 255.882812 172.558594 256.222656 174.0625 256.515625 C 175.566406 256.808594 177.082031 257.054688 178.601562 257.246094 C 180.121094 257.441406 181.644531 257.585938 183.175781 257.679688 C 184.707031 257.773438 186.238281 257.816406 187.769531 257.8125 C 189.300781 257.804688 190.832031 257.75 192.363281 257.644531 C 193.890625 257.539062 195.414062 257.382812 196.933594 257.175781 C 198.453125 256.972656 199.964844 256.714844 201.464844 256.410156 C 202.96875 256.105469 204.457031 255.753906 205.9375 255.351562 C 207.414062 254.949219 208.878906 254.5 210.328125 254.003906 C 211.78125 253.503906 213.210938 252.960938 214.625 252.371094 C 216.039062 251.777344 217.433594 251.140625 218.804688 250.460938 C 220.175781 249.777344 221.527344 249.050781 222.851562 248.28125 C 224.175781 247.507812 225.472656 246.695312 226.746094 245.839844 C 228.015625 244.984375 229.257812 244.089844 230.472656 243.152344 C 231.6875 242.214844 232.867188 241.242188 234.015625 240.226562 C 235.164062 239.210938 236.28125 238.160156 237.359375 237.074219 C 238.441406 235.988281 239.484375 234.867188 240.492188 233.710938 C 241.5 232.558594 242.46875 231.371094 243.398438 230.152344 C 244.328125 228.933594 245.21875 227.6875 246.066406 226.410156 C 246.914062 225.132812 247.71875 223.828125 248.480469 222.5 C 249.246094 221.171875 249.964844 219.816406 250.636719 218.441406 C 251.3125 217.066406 251.941406 215.667969 252.523438 214.25 C 253.109375 212.835938 253.644531 211.398438 254.132812 209.945312 C 254.621094 208.496094 255.0625 207.027344 255.457031 205.546875 C 255.851562 204.066406 256.195312 202.570312 256.492188 201.070312 C 256.785156 199.566406 257.03125 198.050781 257.230469 196.53125 C 257.425781 195.011719 257.574219 193.488281 257.671875 191.957031 C 257.769531 190.429688 257.816406 188.898438 257.8125 187.363281 C 257.808594 185.832031 257.757812 184.300781 257.652344 182.773438 C 257.550781 181.242188 257.398438 179.71875 257.195312 178.199219 C 256.992188 176.679688 256.738281 175.167969 256.4375 173.667969 C 256.136719 172.164062 255.785156 170.671875 255.386719 169.191406 C 254.988281 167.714844 254.542969 166.25 254.046875 164.796875 C 253.550781 163.347656 253.011719 161.914062 252.421875 160.5 C 251.832031 159.085938 251.199219 157.691406 250.519531 156.316406 C 249.839844 154.941406 249.117188 153.59375 248.347656 152.265625 C 247.578125 150.941406 246.769531 149.640625 245.914062 148.367188 C 245.0625 147.09375 244.167969 145.847656 243.234375 144.632812 C 242.300781 143.417969 241.328125 142.234375 240.316406 141.085938 C 239.304688 139.933594 238.253906 138.816406 237.171875 137.734375 C 236.085938 136.652344 234.96875 135.605469 233.8125 134.59375 C 232.660156 133.585938 231.476562 132.613281 230.257812 131.683594 C 229.042969 130.75 227.796875 129.859375 226.519531 129.007812 C 225.246094 128.160156 223.945312 127.351562 222.617188 126.585938 C 221.289062 125.820312 219.9375 125.097656 218.5625 124.421875 C 217.1875 123.742188 215.792969 123.113281 214.375 122.527344 C 212.960938 121.941406 211.527344 121.402344 210.074219 120.910156 C 208.625 120.417969 207.15625 119.972656 205.675781 119.578125 C 204.195312 119.179688 202.703125 118.832031 201.199219 118.535156 C 199.699219 118.238281 198.1875 117.988281 196.667969 117.789062 C 195.148438 117.585938 193.621094 117.4375 192.09375 117.335938 C 190.5625 117.238281 189.03125 117.1875 187.5 117.1875 Z M 187.5 46.875 "/>
<path style=" stroke:none;fill-rule:nonzero;fill:rgb(84.309387%,38.819885%,10.5896%);fill-opacity:1;" d="M 69.773438 264.414062 C 68.410156 262.324219 67.101562 260.199219 65.847656 258.042969 C 64.597656 255.882812 63.402344 253.691406 62.265625 251.46875 C 61.132812 249.246094 60.054688 246.996094 59.039062 244.714844 C 58.023438 242.433594 57.070312 240.128906 56.179688 237.796875 C 55.285156 235.46875 54.457031 233.113281 53.6875 230.738281 C 52.921875 228.363281 52.214844 225.972656 51.578125 223.558594 C 50.9375 221.144531 50.359375 218.71875 49.851562 216.273438 C 49.339844 213.832031 48.894531 211.378906 48.515625 208.910156 C 48.132812 206.445312 47.820312 203.96875 47.570312 201.484375 C 47.324219 199 47.140625 196.511719 47.027344 194.019531 C 46.910156 191.527344 46.859375 189.03125 46.878906 186.535156 C 46.894531 184.039062 46.980469 181.546875 47.128906 179.054688 C 47.277344 176.5625 47.496094 174.078125 47.777344 171.597656 C 48.058594 169.117188 48.40625 166.648438 48.820312 164.1875 C 49.234375 161.726562 49.714844 159.277344 50.257812 156.839844 C 50.800781 154.40625 51.410156 151.984375 52.082031 149.582031 C 52.757812 147.179688 53.492188 144.792969 54.292969 142.429688 C 55.09375 140.066406 55.957031 137.722656 56.878906 135.40625 C 57.804688 133.089844 58.789062 130.796875 59.835938 128.53125 C 60.882812 126.265625 61.988281 124.027344 63.15625 121.820312 C 64.320312 119.613281 65.542969 117.4375 66.824219 115.296875 C 68.109375 113.15625 69.445312 111.050781 70.839844 108.980469 C 72.230469 106.910156 73.679688 104.875 75.183594 102.882812 C 76.683594 100.890625 78.238281 98.9375 79.84375 97.027344 C 81.449219 95.117188 83.105469 93.25 84.808594 91.425781 C 86.515625 89.605469 88.265625 87.828125 90.066406 86.097656 C 91.867188 84.371094 93.710938 82.6875 95.601562 81.058594 C 97.488281 79.425781 99.421875 77.847656 101.394531 76.320312 C 103.367188 74.789062 105.378906 73.316406 107.433594 71.894531 C 109.484375 70.472656 111.570312 69.109375 113.695312 67.796875 C 115.820312 66.488281 117.980469 65.234375 120.171875 64.042969 C 122.363281 62.847656 124.582031 61.710938 126.835938 60.632812 L 157.167969 124.066406 C 156.042969 124.605469 154.929688 125.171875 153.835938 125.769531 C 152.738281 126.367188 151.660156 126.996094 150.597656 127.648438 C 149.535156 128.304688 148.492188 128.988281 147.464844 129.699219 C 146.441406 130.40625 145.433594 131.144531 144.445312 131.910156 C 143.460938 132.671875 142.496094 133.464844 141.550781 134.277344 C 140.605469 135.09375 139.683594 135.933594 138.785156 136.800781 C 137.882812 137.664062 137.007812 138.550781 136.15625 139.464844 C 135.300781 140.375 134.472656 141.308594 133.671875 142.261719 C 132.867188 143.21875 132.09375 144.195312 131.339844 145.191406 C 130.589844 146.1875 129.867188 147.203125 129.167969 148.238281 C 128.472656 149.273438 127.804688 150.328125 127.164062 151.398438 C 126.523438 152.46875 125.910156 153.558594 125.328125 154.660156 C 124.746094 155.765625 124.191406 156.882812 123.667969 158.015625 C 123.144531 159.148438 122.652344 160.292969 122.191406 161.453125 C 121.726562 162.613281 121.296875 163.78125 120.898438 164.964844 C 120.496094 166.148438 120.128906 167.339844 119.792969 168.539062 C 119.457031 169.742188 119.152344 170.953125 118.878906 172.171875 C 118.605469 173.386719 118.367188 174.613281 118.160156 175.84375 C 117.953125 177.074219 117.78125 178.308594 117.636719 179.550781 C 117.496094 180.789062 117.390625 182.03125 117.3125 183.277344 C 117.238281 184.523438 117.199219 185.769531 117.1875 187.019531 C 117.179688 188.265625 117.207031 189.511719 117.261719 190.761719 C 117.320312 192.007812 117.410156 193.25 117.535156 194.492188 C 117.660156 195.734375 117.816406 196.972656 118.007812 198.207031 C 118.195312 199.4375 118.417969 200.667969 118.675781 201.886719 C 118.929688 203.109375 119.21875 204.324219 119.539062 205.53125 C 119.859375 206.734375 120.210938 207.933594 120.59375 209.121094 C 120.976562 210.308594 121.394531 211.484375 121.839844 212.648438 C 122.285156 213.816406 122.761719 214.96875 123.269531 216.105469 C 123.777344 217.246094 124.316406 218.371094 124.882812 219.484375 C 125.449219 220.597656 126.046875 221.691406 126.675781 222.769531 C 127.300781 223.851562 127.953125 224.914062 128.636719 225.957031 Z M 69.773438 264.414062 "/>
<path style=" stroke:none;fill-rule:nonzero;fill:rgb(67.83905%,25.489807%,9.01947%);fill-opacity:1;" d="M 120.570312 63.824219 C 125.691406 61.054688 130.960938 58.609375 136.382812 56.496094 C 141.804688 54.378906 147.335938 52.605469 152.980469 51.179688 C 158.621094 49.75 164.328125 48.675781 170.101562 47.953125 C 175.875 47.234375 181.667969 46.875 187.484375 46.875 L 187.492188 117.1875 C 181.652344 117.1875 175.898438 117.90625 170.234375 119.339844 C 164.574219 120.773438 159.171875 122.882812 154.035156 125.660156 Z M 120.570312 63.824219 "/>
<path style=" stroke:none;fill-rule:nonzero;fill:rgb(51.368713%,12.939453%,6.269836%);fill-opacity:1;" d="M 187.5 46.875 C 187.496094 46.875 187.5 46.875 187.515625 46.875 L 187.507812 117.1875 C 187.507812 117.1875 187.503906 117.1875 187.5 117.1875 Z M 187.5 46.875 "/>
</g>
</svg>
